<svg xmlns="http://www.w3.org/2000/svg" width="48" height="48" viewBox="0 0 48 48">
    <g fill="none" fill-rule="evenodd">
        <path fill="none" fill-opacity="0" fill-rule="nonzero" d="M0 0h48v48H0z"/>
        <path fill="#000" d="M23.71 19.632c-.682 0-1.229-.539-1.229-1.2v-2.43c0-.882-.726-1.6-1.634-1.6-.375 0-.718.14-.995.353a3.928 3.928 0 0 1-3.804.555c-1.108-.423-2.4-.016-3.014 1.023a2.367 2.367 0 0 0 .596 3.066 3.73 3.73 0 0 1 1.413 3.493c-.05.345-.002.704.188 1.026a1.659 1.659 0 0 0 2.23.583l2.158-1.219a1.242 1.242 0 0 1 1.674.442 1.185 1.185 0 0 1-.454 1.636l-2.153 1.218a1.572 1.572 0 0 0-.593 2.18c.187.323.485.54.81.667 1.26.497 2.188 1.6 2.39 2.947.18 1.152 1.188 2.03 2.418 2.03 1.228 0 2.235-.878 2.41-2.03.21-1.346 1.14-2.45 2.394-2.947a1.57 1.57 0 0 0 .813-.667 1.571 1.571 0 0 0-.6-2.18l-2.155-1.218a1.181 1.181 0 0 1-.446-1.636 1.24 1.24 0 0 1 1.673-.442l2.153 1.22a1.666 1.666 0 0 0 2.238-.584 1.59 1.59 0 0 0 .183-1.026 3.728 3.728 0 0 1 1.41-3.493c.93-.727 1.216-2.023.6-3.066-.617-1.039-1.9-1.446-3.015-1.023a3.924 3.924 0 0 1-3.802-.555 1.626 1.626 0 0 0-1.002-.352c-.896 0-1.63.717-1.63 1.598v2.43c0 .662-.55 1.201-1.224 1.201"/>
    </g>
</svg>